# xmcd CD database file
#
# Track frame offsets:
#	150
#	13692
#	27187
#	40663
#	54658
#	70400
#	82728
#	96514
#	108869
#	122823
#	135128
#
# Disc length: 1969 seconds
#
# Revision: 0
# Processed by: cddbd v1.5.2PL0 Copyright (c) Steve Scherf et al.
# Submitted via: CDex 1.51
#
DISCID=8407af0b
DTITLE=Orquesta Riverside - Bailemos Con La Riverside
DYEAR=1900
DGENRE=Salsa
TTITLE0=Cambia El Paso
TTITLE1=Bartola
TTITLE2=Capullito De Aleli
TTITLE3=El Agua Del Pon Pon
TTITLE4=Que Equivocacion
TTITLE5=Mambo En España
TTITLE6=Desarrecuestate
TTITLE7=Perico Cimarron
TTITLE8=Canuto Viejo Bruto
TTITLE9=El Kimbo
TTITLE10=Cuento De Hadas
EXTD=
EXTT0=
EXTT1=
EXTT2=
EXTT3=
EXTT4=
EXTT5=
EXTT6=
EXTT7=
EXTT8=
EXTT9=
EXTT10=
PLAYORDER=
